<svg width="512" height="512" viewBox="0 0 512 512" fill="none" xmlns="http://www.w3.org/2000/svg">
<path d="M426.573 174.417L499.311 245.338C503.263 249.192 503.385 255.566 499.583 259.575L268.78 502.946C264.978 506.955 258.691 507.082 254.739 503.228L189.157 439.284C185.205 435.43 185.084 429.056 188.886 425.047L426.573 174.417Z" fill="#2A85F0"/>
<path d="M339.853 105.437C344.028 101.02 350.943 100.87 355.298 105.101L427.435 175.203L344.178 263.286L271.324 192.488C267.365 188.641 267.233 182.267 271.029 178.251L339.853 105.437Z" fill="#2A85F0"/>
<path d="M81.9398 338.135L10.8379 267.062C6.93319 263.159 6.85689 256.752 10.6674 252.751L243.394 8.43456C247.205 4.43424 253.459 4.35542 257.364 8.25854L321.396 72.2649C325.301 76.168 325.377 82.575 321.566 86.5754L81.9398 338.135Z" fill="#9E92E8"/>
<path d="M166.97 407.373C162.785 411.78 155.906 411.879 151.603 407.592L81.0945 337.346L163.725 250.311L234.234 320.557C238.536 324.844 238.632 331.891 234.448 336.299L166.97 407.373Z" fill="#9E92E8"/>
</svg>
